<mxfile host="Electron" modified="2024-03-24T01:02:50.757Z" agent="Mozilla/5.0 (X11; Linux x86_64) AppleWebKit/537.36 (KHTML, like Gecko) draw.io/24.0.4 Chrome/120.0.6099.109 Electron/28.1.0 Safari/537.36" etag="iTVZIJ7O98h1IDJyep6q" version="24.0.4" type="device">
  <diagram name="Page-1" id="rRRjo5Q8h4NDFJHa_zMX">
    <mxGraphModel dx="1114" dy="686" grid="1" gridSize="10" guides="1" tooltips="1" connect="1" arrows="1" fold="1" page="1" pageScale="1" pageWidth="850" pageHeight="1100" math="0" shadow="0">
      <root>
        <mxCell id="0" />
        <mxCell id="1" parent="0" />
        <mxCell id="7sC7K-qscv37JzKic1VE-1" value="" style="rounded=0;whiteSpace=wrap;html=1;" vertex="1" parent="1">
          <mxGeometry x="230" y="120" width="170" height="260" as="geometry" />
        </mxCell>
        <mxCell id="7sC7K-qscv37JzKic1VE-2" value="" style="rounded=0;whiteSpace=wrap;html=1;" vertex="1" parent="1">
          <mxGeometry x="400" y="230" width="180" height="50" as="geometry" />
        </mxCell>
        <mxCell id="7sC7K-qscv37JzKic1VE-3" value="" style="rounded=0;whiteSpace=wrap;html=1;" vertex="1" parent="1">
          <mxGeometry x="580" y="120" width="170" height="260" as="geometry" />
        </mxCell>
        <mxCell id="7sC7K-qscv37JzKic1VE-4" value="South Tower" style="text;html=1;align=center;verticalAlign=middle;whiteSpace=wrap;rounded=0;" vertex="1" parent="1">
          <mxGeometry x="285" y="240" width="60" height="30" as="geometry" />
        </mxCell>
        <mxCell id="7sC7K-qscv37JzKic1VE-7" value="North Tower" style="text;html=1;align=center;verticalAlign=middle;whiteSpace=wrap;rounded=0;" vertex="1" parent="1">
          <mxGeometry x="635" y="240" width="60" height="30" as="geometry" />
        </mxCell>
        <mxCell id="7sC7K-qscv37JzKic1VE-8" value="hallway" style="text;html=1;align=center;verticalAlign=middle;whiteSpace=wrap;rounded=0;" vertex="1" parent="1">
          <mxGeometry x="450" y="240" width="60" height="30" as="geometry" />
        </mxCell>
      </root>
    </mxGraphModel>
  </diagram>
</mxfile>
